# xmcd
#
# Track frame offsets: 
#        150
#        21094
#        39706
#        59855
#        84968
#        113171
#        130961
#        155473
#        178894
#        202861
#        227920
#        258373
#
# Disc length: 3852 seconds
#
# Revision: 3
# Processed by: cddbd v1.5.2PL0 Copyright (c) Steve Scherf et al.
# Submitted via: ExactAudioCopyFreeDBPlugin 1.0
#
DISCID=a30f0a0c
DTITLE=Various Artist - Feiert Jesus 8
DYEAR=2002
DGENRE=Worship
TTITLE0=Tina Rink - Im Herzen ein Lied (Free To Dance)
TTITLE1=Sebastian-D Cuthbert - Du bleibst an meiner Seite
TTITLE2=Lena Ahrend - Frieden dir Jerusalem (Diese Stadt war einzigart
TTITLE2=ig)
TTITLE3=Tina Rink - Herr ich komme zu dir
TTITLE4=Bernd-Martin Müller - Herrlicher Gott (The Potter's Hand [Beau
TTITLE4=tiful Lord])
TTITLE5=Sebastian-D Cuthbert - Deine Hand hat mich berührt (You Have L
TTITLE5=aid Your Hand OnMe)
TTITLE6=Lena Ahrend - Jesus Herr ich denke an deine Opfer
TTITLE7=Tina Rink - Herr nur ein Tag
TTITLE8=Bernd-Martin Müller - Lobpreis und Ehre (Blessing and Honor [A
TTITLE8=ncient Of Days])
TTITLE9=Lena Ahrend - Jesus du bist wunderbar
TTITLE10=Sebastian-D Cuthbert - Deine Liebe bleibt (Your Unfailing Lov
TTITLE10=e)
TTITLE11=Tina Rink - Herr ich suche deine Ruhe (Auge im Sturm)
EXTD=
EXTT0=
EXTT1=
EXTT2=
EXTT3=
EXTT4=
EXTT5=
EXTT6=
EXTT7=
EXTT8=
EXTT9=
EXTT10=
EXTT11=
PLAYORDER=
